<?xml version="1.0" encoding="UTF-8"?>
<!DOCTYPE svg PUBLIC "-//W3C//DTD SVG 1.1//EN" "http://www.w3.org/Graphics/SVG/1.1/DTD/svg11.dtd">
<svg xmlns="http://www.w3.org/2000/svg" version="1.1" width="1946px" height="1925px" style="shape-rendering:geometricPrecision; text-rendering:geometricPrecision; image-rendering:optimizeQuality; fill-rule:evenodd; clip-rule:evenodd" xmlns:xlink="http://www.w3.org/1999/xlink">
<g><path style="opacity:0.999" fill="#2559a4" d="M 1885.5,934.5 C 1870.69,1141.9 1793.53,1321.9 1654,1474.5C 1621.18,1509.67 1585.68,1541.5 1547.5,1570C 1546.18,1570.82 1545.51,1571.98 1545.5,1573.5C 1367.28,1720.52 1161.95,1790.02 929.5,1782C 759.594,1772.98 604.927,1720.48 465.5,1624.5C 285.504,1509.34 162.67,1349.68 97,1145.5C 76.5468,1076.8 64.0468,1006.8 59.5,935.5C 69.0327,686.686 161.699,475.186 337.5,301C 515.11,133.575 726.776,48.0753 972.5,44.5C 1221.43,48.2521 1435.1,135.752 1613.5,307C 1784.97,480.211 1875.64,689.378 1885.5,934.5 Z"/></g>
<g><path style="opacity:1" fill="#fefefe" d="M 1429.5,1360.5 C 1411.01,1361.5 1392.34,1361.83 1373.5,1361.5C 1283.67,1357.81 1194.67,1347.31 1106.5,1330C 1032.2,1315.34 958.532,1298.01 885.5,1278C 793.205,1265.5 709.205,1232.5 633.5,1179C 573.789,1136.3 528.289,1081.8 497,1015.5C 444.68,885.48 461.68,765.48 548,655.5C 607.802,584.821 681.635,534.321 769.5,504C 875.837,468.132 984.171,460.799 1094.5,482C 1189.28,500.766 1273.28,541.1 1346.5,603C 1398.54,648.38 1436.37,703.547 1460,768.5C 1490.68,866.064 1481.01,959.397 1431,1048.5C 1408.14,1080.55 1389.14,1114.88 1374,1151.5C 1360.44,1184.2 1355.11,1218.2 1358,1253.5C 1362.83,1290.67 1379.33,1321.51 1407.5,1346C 1414.38,1351.6 1421.71,1356.43 1429.5,1360.5 Z"/></g>
<g><path style="opacity:1" fill="#2559a5" d="M 940.5,534.5 C 1044.41,528.862 1141.07,552.362 1230.5,605C 1290.89,641.725 1337.06,691.558 1369,754.5C 1413.48,856.713 1404.15,953.713 1341,1045.5C 1318.85,1071.78 1300.18,1100.44 1285,1131.5C 1270.03,1162.65 1265.03,1195.31 1270,1229.5C 1277.11,1259.59 1293.27,1283.42 1318.5,1301C 1319.7,1301.65 1319.7,1302.15 1318.5,1302.5C 1237.67,1297.36 1158,1284.86 1079.5,1265C 1008.56,1247.47 938.555,1226.47 869.5,1202C 774.793,1182.81 694.959,1137.98 630,1067.5C 585.818,1016.78 560.484,957.781 554,890.5C 550.126,816.129 571.126,749.796 617,691.5C 668.323,629.228 732.49,585.395 809.5,560C 852.204,545.916 895.87,537.416 940.5,534.5 Z"/></g>
<g><path style="opacity:1" fill="#fefefe" d="M 941.5,612.5 C 1022.1,607.312 1097.43,624.479 1167.5,664C 1219.3,694.47 1257.8,736.97 1283,791.5C 1313.12,872.309 1302.12,946.975 1250,1015.5C 1212.85,1059.84 1167.01,1092.01 1112.5,1112C 1014.43,1145.72 917.426,1143.05 821.5,1104C 763.703,1078.86 717.537,1040.03 683,987.5C 647.485,927.195 640.818,863.861 663,797.5C 683.225,748.259 715.059,708.092 758.5,677C 813.759,639.302 874.759,617.802 941.5,612.5 Z"/></g>
<g><path style="opacity:1" fill="#2559a5" d="M 960.5,700.5 C 996.591,696.485 1027.76,706.819 1054,731.5C 1064.38,742.597 1071.38,755.597 1075,770.5C 1076.44,793.461 1076.94,816.461 1076.5,839.5C 1086.23,839.109 1095.9,839.609 1105.5,841C 1111.33,842.833 1115.17,846.667 1117,852.5C 1117.67,901.167 1117.67,949.833 1117,998.5C 1114.74,1005.1 1110.24,1009.26 1103.5,1011C 1018.5,1011.67 933.5,1011.67 848.5,1011C 842.333,1008.83 838.167,1004.67 836,998.5C 835.333,949.5 835.333,900.5 836,851.5C 838.659,845.508 843.159,841.675 849.5,840C 858.494,839.5 867.494,839.334 876.5,839.5C 876.333,817.831 876.5,796.164 877,774.5C 884.705,741.453 904.539,718.953 936.5,707C 944.463,704.178 952.463,702.012 960.5,700.5 Z"/></g>
<g><path style="opacity:1" fill="#fefefe" d="M 970.5,746.5 C 991.605,745.304 1008.1,753.304 1020,770.5C 1021.2,773.089 1022.2,775.756 1023,778.5C 1023.5,798.831 1023.67,819.164 1023.5,839.5C 991.833,839.5 960.167,839.5 928.5,839.5C 928.333,819.831 928.5,800.164 929,780.5C 935.852,760.508 949.686,749.175 970.5,746.5 Z"/></g>
<g><path style="opacity:1" fill="#fefefe" d="M 885.5,880.5 C 946.892,880.011 1008.23,880.511 1069.5,882C 1070.13,882.75 1070.63,883.584 1071,884.5C 1071.67,912.167 1071.67,939.833 1071,967.5C 1070.1,968.701 1068.93,969.535 1067.5,970C 1006.5,970.667 945.5,970.667 884.5,970C 883.333,968.833 882.167,967.667 881,966.5C 880.333,939.167 880.333,911.833 881,884.5C 882.397,882.93 883.897,881.596 885.5,880.5 Z"/></g>
<g><path style="opacity:0.988" fill="#0f6836" d="M 59.5,935.5 C 64.0468,1006.8 76.5468,1076.8 97,1145.5C 162.67,1349.68 285.504,1509.34 465.5,1624.5C 463.45,1626.24 461.617,1628.24 460,1630.5C 445.566,1651.05 431.4,1671.72 417.5,1692.5C 345.736,1638.57 283.57,1575.24 231,1502.5C 118.776,1346.49 61.2757,1171.99 58.5,979C 58.564,964.485 58.8974,949.985 59.5,935.5 Z"/></g>
<g><path style="opacity:0.989" fill="#e63f1c" d="M 1885.5,934.5 C 1893.16,1195.78 1807.33,1420.45 1628,1608.5C 1618.94,1617.73 1609.77,1626.73 1600.5,1635.5C 1597.94,1634.46 1595.78,1632.79 1594,1630.5C 1578.29,1611.06 1562.12,1592.06 1545.5,1573.5C 1545.51,1571.98 1546.18,1570.82 1547.5,1570C 1585.68,1541.5 1621.18,1509.67 1654,1474.5C 1793.53,1321.9 1870.69,1141.9 1885.5,934.5 Z"/></g>
<g><path style="opacity:1" fill="#87a3cd" d="M 1429.5,1360.5 C 1430.04,1360.56 1430.38,1360.89 1430.5,1361.5C 1411.34,1362.83 1392.34,1362.83 1373.5,1361.5C 1392.34,1361.83 1411.01,1361.5 1429.5,1360.5 Z"/></g>
<g><path style="opacity:0.997" fill="#fdbc11" d="M 1545.5,1573.5 C 1562.12,1592.06 1578.29,1611.06 1594,1630.5C 1595.78,1632.79 1597.94,1634.46 1600.5,1635.5C 1512.69,1711.28 1413.69,1768.94 1303.5,1808.5C 1301.45,1808.4 1299.78,1809.07 1298.5,1810.5C 1297.79,1811.4 1296.79,1811.74 1295.5,1811.5C 1293.45,1811.4 1291.78,1812.07 1290.5,1813.5C 1289.79,1814.4 1288.79,1814.74 1287.5,1814.5C 1083.06,1881.92 878.063,1883.58 672.5,1819.5C 667.5,1817.06 662.166,1815.39 656.5,1814.5C 570.671,1785.09 491.004,1744.42 417.5,1692.5C 431.4,1671.72 445.566,1651.05 460,1630.5C 461.617,1628.24 463.45,1626.24 465.5,1624.5C 604.927,1720.48 759.594,1772.98 929.5,1782C 1161.95,1790.02 1367.28,1720.52 1545.5,1573.5 Z"/></g>
<g><path style="opacity:0.51" fill="#737877" d="M 1303.5,1808.5 C 1302.22,1809.93 1300.55,1810.6 1298.5,1810.5C 1299.78,1809.07 1301.45,1808.4 1303.5,1808.5 Z"/></g>
<g><path style="opacity:0.282" fill="#536690" d="M 1295.5,1811.5 C 1294.22,1812.93 1292.55,1813.6 1290.5,1813.5C 1291.78,1812.07 1293.45,1811.4 1295.5,1811.5 Z"/></g>
<g><path style="opacity:1" fill="#77747c" d="M 656.5,1814.5 C 662.166,1815.39 667.5,1817.06 672.5,1819.5C 671.833,1819.5 671.167,1819.5 670.5,1819.5C 665.607,1818.2 660.94,1816.54 656.5,1814.5 Z"/></g>
<g><path style="opacity:0.868" fill="#315ba1" d="M 1287.5,1814.5 C 1186.08,1852.45 1081.08,1871.11 972.5,1870.5C 868.746,1870.99 768.079,1853.99 670.5,1819.5C 671.167,1819.5 671.833,1819.5 672.5,1819.5C 878.063,1883.58 1083.06,1881.92 1287.5,1814.5 Z"/></g>
</svg>
